<?xml version="1.0" encoding="UTF-8" standalone="no"?>
<!DOCTYPE svg PUBLIC "-//W3C//DTD SVG 1.1//EN" "http://www.w3.org/Graphics/SVG/1.1/DTD/svg11.dtd">
<svg version="1.1" xmlns="http://www.w3.org/2000/svg" xmlns:xlink="http://www.w3.org/1999/xlink" preserveAspectRatio="xMidYMid meet" viewBox="0 0 200 200" width="300" height="300"><defs><path d="M108.78 183.91L108.78 111.99L39.68 111.99L39.68 183.91L4.25 183.91L4.25 16.09L39.68 16.09L39.68 84.09L108.78 84.09L108.78 16.09L144.21 16.09L144.21 183.91L108.78 183.91Z" id="f1NbdwoYH4"></path><path d="M175.26 140.46L175.9 140.5L176.53 140.56L177.16 140.64L177.78 140.74L178.39 140.85L179 140.99L179.6 141.13L180.19 141.3L180.78 141.48L181.36 141.69L181.94 141.91L182.5 142.14L183.07 142.4L183.62 142.67L184.17 142.96L184.71 143.26L185.24 143.59L185.77 143.93L186.29 144.29L186.81 144.67L187.32 145.06L187.82 145.47L188.32 145.9L188.8 146.35L189.29 146.81L189.76 147.29L190.21 147.77L190.64 148.27L191.06 148.77L191.46 149.27L191.84 149.79L192.2 150.31L192.55 150.84L192.88 151.38L193.19 151.92L193.48 152.47L193.76 153.03L194.01 153.6L194.25 154.17L194.47 154.76L194.68 155.35L194.86 155.94L195.03 156.55L195.18 157.16L195.32 157.78L195.43 158.41L195.53 159.04L195.61 159.68L195.67 160.33L195.72 160.99L195.74 161.66L195.75 162.33L195.74 163L195.72 163.66L195.67 164.32L195.61 164.97L195.53 165.61L195.43 166.24L195.32 166.86L195.18 167.48L195.03 168.09L194.86 168.69L194.68 169.28L194.47 169.87L194.25 170.44L194.01 171.01L193.76 171.57L193.48 172.13L193.19 172.67L192.88 173.21L192.55 173.74L192.2 174.26L191.84 174.77L191.46 175.28L191.06 175.77L190.64 176.26L190.21 176.74L189.76 177.22L189.29 177.68L188.8 178.14L188.32 178.57L187.82 178.99L187.32 179.39L186.81 179.78L186.29 180.14L185.77 180.49L185.24 180.83L184.71 181.14L184.17 181.44L183.62 181.73L183.07 181.99L182.5 182.24L181.94 182.47L181.36 182.68L180.78 182.88L180.19 183.06L179.6 183.22L179 183.37L178.39 183.49L177.78 183.61L177.16 183.7L176.53 183.78L175.9 183.84L175.26 183.88L174.61 183.9L173.96 183.91L173.31 183.9L172.67 183.88L172.03 183.84L171.4 183.78L170.78 183.7L170.16 183.61L169.54 183.49L168.94 183.37L168.34 183.22L167.74 183.06L167.15 182.88L166.57 182.68L165.99 182.47L165.42 182.24L164.85 181.99L164.29 181.73L163.73 181.44L163.18 181.14L162.64 180.83L162.1 180.49L161.57 180.14L161.05 179.78L160.53 179.39L160.01 178.99L159.5 178.57L159 178.14L158.5 177.68L158.02 177.22L157.55 176.74L157.1 176.26L156.67 175.77L156.26 175.28L155.87 174.77L155.49 174.26L155.14 173.74L154.8 173.21L154.48 172.67L154.18 172.13L153.89 171.57L153.63 171.01L153.38 170.44L153.15 169.87L152.94 169.28L152.75 168.69L152.58 168.09L152.42 167.48L152.28 166.86L152.16 166.24L152.06 165.61L151.98 164.97L151.92 164.32L151.87 163.66L151.84 163L151.83 162.33L151.84 161.66L151.87 161L151.92 160.35L151.98 159.7L152.06 159.07L152.16 158.44L152.28 157.81L152.41 157.2L152.57 156.59L152.74 155.99L152.93 155.39L153.14 154.8L153.36 154.22L153.61 153.65L153.87 153.08L154.15 152.52L154.45 151.97L154.76 151.43L155.1 150.89L155.45 150.36L155.82 149.84L156.21 149.32L156.62 148.81L157.04 148.31L157.48 147.82L157.94 147.33L158.42 146.85L158.91 146.39L159.41 145.94L159.92 145.5L160.43 145.09L160.94 144.69L161.47 144.31L162 143.95L162.53 143.61L163.08 143.28L163.63 142.97L164.18 142.68L164.74 142.41L165.31 142.15L165.89 141.91L166.47 141.69L167.06 141.49L167.65 141.31L168.25 141.14L168.86 140.99L169.48 140.86L170.1 140.74L170.72 140.64L171.36 140.57L172 140.5L172.64 140.46L173.3 140.43L173.96 140.42L174.61 140.43L175.26 140.46ZM172.56 152.25L171.89 152.36L171.24 152.5L170.6 152.69L169.99 152.92L169.4 153.2L168.82 153.51L168.27 153.87L167.73 154.26L167.22 154.7L166.72 155.19L166.25 155.7L165.82 156.22L165.44 156.76L165.09 157.32L164.79 157.89L164.52 158.48L164.3 159.08L164.12 159.7L163.97 160.33L163.87 160.98L163.81 161.65L163.79 162.33L163.81 163.01L163.87 163.67L163.98 164.31L164.12 164.94L164.31 165.55L164.53 166.14L164.8 166.71L165.11 167.27L165.46 167.8L165.85 168.32L166.28 168.83L166.76 169.31L167.26 169.77L167.78 170.18L168.32 170.56L168.88 170.9L169.45 171.2L170.04 171.45L170.65 171.67L171.28 171.85L171.92 171.99L172.58 172.09L173.26 172.15L173.96 172.17L174.66 172.15L175.35 172.09L176.02 171.99L176.66 171.85L177.29 171.68L177.89 171.46L178.47 171.21L179.03 170.92L179.58 170.58L180.1 170.21L180.59 169.8L181.07 169.35L181.52 168.87L181.93 168.37L182.3 167.86L182.63 167.32L182.92 166.76L183.18 166.19L183.39 165.59L183.57 164.98L183.7 164.34L183.8 163.69L183.86 163.02L183.88 162.33L183.86 161.65L183.8 160.98L183.7 160.33L183.57 159.7L183.39 159.08L183.18 158.48L182.92 157.89L182.63 157.32L182.3 156.76L181.93 156.22L181.52 155.7L181.07 155.19L180.59 154.7L180.1 154.26L179.58 153.87L179.03 153.51L178.47 153.2L177.89 152.92L177.29 152.69L176.66 152.5L176.02 152.36L175.35 152.25L174.66 152.19L173.96 152.17L173.25 152.19L172.56 152.25Z" id="a37WI5PC7c"></path></defs><g><g><g><use xlink:href="#f1NbdwoYH4" opacity="1" fill="#000000" fill-opacity="1"></use><g><use xlink:href="#f1NbdwoYH4" opacity="1" fill-opacity="0" stroke="#000000" stroke-width="1" stroke-opacity="1"></use></g></g><g><use xlink:href="#a37WI5PC7c" opacity="1" fill="#000000" fill-opacity="1"></use><g><use xlink:href="#a37WI5PC7c" opacity="1" fill-opacity="0" stroke="#000000" stroke-width="1" stroke-opacity="1"></use></g></g></g></g></svg>