<?xml version="1.0" encoding="UTF-8" standalone="no"?>
<!-- Created with Inkscape (http://www.inkscape.org/) -->

<svg
   xmlns:dc="http://purl.org/dc/elements/1.1/"
   xmlns:cc="http://creativecommons.org/ns#"
   xmlns:rdf="http://www.w3.org/1999/02/22-rdf-syntax-ns#"
   xmlns:svg="http://www.w3.org/2000/svg"
   xmlns="http://www.w3.org/2000/svg"
   xmlns:sodipodi="http://sodipodi.sourceforge.net/DTD/sodipodi-0.dtd"
   xmlns:inkscape="http://www.inkscape.org/namespaces/inkscape"
   width="210mm"
   height="297mm"
   viewBox="0 0 210 297"
   version="1.1"
   id="svg8"
   inkscape:version="0.92.3 (2405546, 2018-03-11)"
   sodipodi:docname="LOGO-stroke2.svg">
  <defs
     id="defs2" />
  <sodipodi:namedview
     id="base"
     pagecolor="#ffffff"
     bordercolor="#666666"
     borderopacity="1.0"
     inkscape:pageopacity="0.0"
     inkscape:pageshadow="2"
     inkscape:zoom="1.88"
     inkscape:cx="219.56027"
     inkscape:cy="732.2334"
     inkscape:document-units="mm"
     inkscape:current-layer="lines"
     showgrid="false"
     inkscape:window-width="1920"
     inkscape:window-height="1001"
     inkscape:window-x="-9"
     inkscape:window-y="-9"
     inkscape:window-maximized="1" />
  <metadata
     id="metadata5">
    <rdf:RDF>
      <cc:Work
         rdf:about="">
        <dc:format>image/svg+xml</dc:format>
        <dc:type
           rdf:resource="http://purl.org/dc/dcmitype/StillImage" />
        <dc:title />
      </cc:Work>
    </rdf:RDF>
  </metadata>
  <g
     inkscape:label="Layer 1"
     inkscape:groupmode="layer"
     id="layer1">
    <g
       inkscape:label="Layer 1"
       id="layer1-9"
       transform="translate(2.59125,-35.025274)">
      <g
         id="lines"
         transform="matrix(0.26458333,0,0,0.26458333,50.421562,122.54388)">
        <path
           d="m 241.06,71.51 0.41,0.01 0.41,0.02 0.4,0.03 0.39,0.02 0.39,0.04 0.39,0.04 0.38,0.04 0.38,0.05 0.37,0.06 0.37,0.06 0.37,0.06 0.36,0.08 0.35,0.07 0.35,0.08 0.35,0.09 0.34,0.09 0.34,0.1 0.34,0.1 0.33,0.11 0.32,0.11 0.33,0.12 0.31,0.13 0.32,0.12 0.3,0.14 0.31,0.14 0.3,0.14 0.29,0.15 0.3,0.16 0.28,0.16 0.29,0.16 0.27,0.18 0.28,0.17 0.27,0.18 0.26,0.19 0.27,0.19 0.25,0.2 0.25,0.2 0.25,0.21 0.25,0.21 0.23,0.22 0.23,0.22 0.23,0.23 0.22,0.23 0.21,0.23 0.2,0.24 0.2,0.24 0.2,0.25 0.19,0.25 0.18,0.25 0.17,0.26 0.17,0.27 0.16,0.27 0.16,0.27 0.15,0.27 0.15,0.28 0.14,0.29 0.13,0.29 0.12,0.29 0.12,0.3 0.12,0.3 0.11,0.31 0.1,0.31 0.09,0.32 0.09,0.32 0.08,0.32 0.08,0.33 0.07,0.33 0.07,0.34 0.05,0.34 0.06,0.34 0.04,0.35 0.04,0.35 0.04,0.36 0.02,0.36 0.03,0.37 0.01,0.37 0.01,0.37 v 0.38 19.65 l 0.01,0.32 v 0.32 l 0.01,0.31 0.01,0.31 0.01,0.3 0.02,0.3 0.01,0.3 0.02,0.29 0.02,0.29 0.02,0.29 0.03,0.28 0.02,0.28 0.03,0.27 0.03,0.27 0.04,0.27 0.03,0.26 0.04,0.26 0.04,0.25 0.04,0.25 0.05,0.25 0.04,0.24 0.05,0.24 0.05,0.23 0.05,0.23 0.06,0.23 0.05,0.22 0.06,0.22 0.06,0.21 0.07,0.21 0.06,0.21 0.07,0.2 0.07,0.2 0.07,0.2 0.08,0.19 0.07,0.18 0.08,0.19 0.08,0.18 0.08,0.17 0.09,0.17 0.08,0.17 v 0.71 h -12.22 l -0.05,-0.12 -0.05,-0.12 -0.05,-0.12 -0.04,-0.12 -0.04,-0.12 -0.05,-0.11 -0.04,-0.12 -0.04,-0.11 -0.04,-0.12 -0.04,-0.11 -0.04,-0.11 -0.04,-0.11 -0.04,-0.11 -0.03,-0.11 -0.04,-0.1 -0.03,-0.11 -0.03,-0.11 -0.04,-0.1 -0.03,-0.1 -0.03,-0.11 -0.03,-0.1 -0.03,-0.1 -0.03,-0.1 -0.02,-0.09 -0.03,-0.1 -0.03,-0.1 -0.02,-0.09 -0.02,-0.1 -0.03,-0.09 -0.02,-0.09 -0.02,-0.09 -0.02,-0.09 -0.02,-0.09 -0.02,-0.09 -0.02,-0.08 -0.01,-0.09 -0.02,-0.08 -0.01,-0.09 -0.02,-0.08 -0.01,-0.08 -0.22,0.24 -0.23,0.24 -0.22,0.23 -0.24,0.22 -0.23,0.22 -0.24,0.21 -0.24,0.2 -0.24,0.2 -0.25,0.2 -0.25,0.18 -0.26,0.18 -0.26,0.18 -0.26,0.17 -0.26,0.16 -0.27,0.16 -0.27,0.15 -0.27,0.14 -0.28,0.14 -0.28,0.13 -0.29,0.12 -0.28,0.12 -0.29,0.12 -0.3,0.1 -0.3,0.11 -0.3,0.09 -0.3,0.09 -0.31,0.08 -0.31,0.08 -0.31,0.07 -0.32,0.06 -0.32,0.06 -0.32,0.05 -0.33,0.05 -0.33,0.04 -0.33,0.03 -0.34,0.03 -0.34,0.02 -0.35,0.02 -0.34,0.01 h -0.35 -0.33 l -0.33,-0.01 -0.33,-0.01 -0.32,-0.02 -0.32,-0.02 -0.32,-0.03 -0.31,-0.03 -0.32,-0.03 -0.3,-0.05 -0.31,-0.04 -0.3,-0.05 -0.3,-0.06 -0.3,-0.06 -0.29,-0.06 -0.3,-0.07 -0.28,-0.08 -0.29,-0.08 -0.28,-0.08 -0.28,-0.09 -0.28,-0.09 -0.28,-0.1 -0.27,-0.11 -0.27,-0.1 -0.26,-0.12 -0.27,-0.12 -0.26,-0.12 -0.25,-0.13 -0.26,-0.13 -0.25,-0.14 -0.25,-0.14 -0.24,-0.14 -0.25,-0.16 -0.24,-0.15 -0.23,-0.16 -0.24,-0.17 -0.23,-0.17 -0.23,-0.18 -0.23,-0.18 -0.22,-0.18 -0.22,-0.19 -0.21,-0.2 -0.22,-0.19 -0.2,-0.2 -0.2,-0.2 -0.19,-0.21 -0.19,-0.21 -0.19,-0.2 -0.17,-0.22 -0.18,-0.21 -0.16,-0.22 -0.16,-0.22 -0.16,-0.22 -0.15,-0.22 -0.15,-0.23 -0.14,-0.23 -0.13,-0.23 -0.13,-0.23 -0.12,-0.24 -0.12,-0.24 -0.11,-0.24 -0.11,-0.24 -0.1,-0.25 -0.09,-0.25 -0.09,-0.25 -0.09,-0.26 -0.08,-0.25 -0.07,-0.26 -0.07,-0.26 -0.06,-0.27 -0.06,-0.27 -0.05,-0.26 -0.05,-0.28 -0.04,-0.27 -0.04,-0.28 -0.03,-0.28 -0.02,-0.28 -0.02,-0.28 -0.01,-0.29 -0.01,-0.29 -0.01,-0.29 0.01,-0.36 0.01,-0.35 0.01,-0.35 0.03,-0.35 0.03,-0.34 0.03,-0.34 0.05,-0.33 0.05,-0.33 0.06,-0.32 0.06,-0.33 0.07,-0.31 0.08,-0.31 0.08,-0.31 0.09,-0.31 0.1,-0.29 0.1,-0.3 0.11,-0.29 0.12,-0.29 0.12,-0.28 0.13,-0.28 0.14,-0.27 0.14,-0.27 0.15,-0.27 0.16,-0.26 0.16,-0.26 0.17,-0.25 0.18,-0.25 0.18,-0.25 0.19,-0.24 0.2,-0.23 0.2,-0.24 0.21,-0.23 0.22,-0.22 0.22,-0.22 0.23,-0.22 0.24,-0.21 0.24,-0.2 0.25,-0.21 0.26,-0.2 0.26,-0.19 0.27,-0.19 0.28,-0.19 0.28,-0.18 0.29,-0.17 0.29,-0.17 0.3,-0.17 0.31,-0.16 0.31,-0.16 0.32,-0.15 0.32,-0.15 0.33,-0.14 0.34,-0.14 0.34,-0.13 0.34,-0.13 0.36,-0.13 0.36,-0.11 0.36,-0.12 0.37,-0.11 0.38,-0.1 0.38,-0.1 0.39,-0.1 0.4,-0.09 0.4,-0.08 0.4,-0.08 0.42,-0.08 0.41,-0.07 0.43,-0.07 0.43,-0.06 0.44,-0.06 0.44,-0.05 0.45,-0.04 0.45,-0.05 0.46,-0.04 0.47,-0.03 0.47,-0.03 0.48,-0.02 0.48,-0.02 0.49,-0.01 0.5,-0.01 0.5,-0.01 h 5.57 v -2.59 -0.16 l -0.01,-0.15 v -0.16 l -0.01,-0.15 -0.01,-0.15 -0.01,-0.15 -0.01,-0.15 -0.02,-0.14 -0.01,-0.14 -0.02,-0.15 -0.02,-0.14 -0.03,-0.14 -0.02,-0.13 -0.03,-0.14 -0.03,-0.13 -0.03,-0.14 -0.03,-0.13 -0.04,-0.13 -0.04,-0.12 -0.03,-0.13 -0.05,-0.13 -0.04,-0.12 -0.04,-0.12 -0.05,-0.12 -0.05,-0.12 -0.05,-0.12 -0.06,-0.11 -0.05,-0.12 -0.06,-0.11 -0.06,-0.11 -0.06,-0.11 -0.06,-0.11 -0.07,-0.1 -0.07,-0.11 -0.07,-0.1 -0.07,-0.1 -0.07,-0.1 -0.08,-0.1 -0.07,-0.1 -0.08,-0.09 -0.09,-0.09 -0.08,-0.09 -0.09,-0.09 -0.09,-0.09 -0.09,-0.08 -0.09,-0.08 -0.1,-0.08 -0.09,-0.08 -0.1,-0.07 -0.11,-0.08 -0.1,-0.06 -0.11,-0.07 -0.11,-0.07 -0.11,-0.06 -0.12,-0.06 -0.11,-0.06 -0.12,-0.05 -0.12,-0.06 -0.13,-0.05 -0.12,-0.04 -0.13,-0.05 -0.13,-0.04 -0.13,-0.05 -0.14,-0.03 -0.14,-0.04 -0.14,-0.03 -0.14,-0.04 -0.14,-0.03 -0.15,-0.02 -0.15,-0.03 -0.15,-0.02 -0.16,-0.02 -0.15,-0.02 -0.16,-0.01 -0.16,-0.02 -0.17,-0.01 -0.16,-0.01 h -0.17 -0.17 l -0.17,-0.01 -0.15,0.01 h -0.16 -0.14 l -0.15,0.01 -0.15,0.01 -0.14,0.01 -0.14,0.01 -0.14,0.01 -0.14,0.02 -0.14,0.02 -0.13,0.02 -0.14,0.02 -0.13,0.02 -0.13,0.02 -0.13,0.03 -0.13,0.03 -0.12,0.03 -0.13,0.03 -0.12,0.04 -0.12,0.03 -0.12,0.04 -0.12,0.04 -0.11,0.04 -0.12,0.04 -0.11,0.05 -0.11,0.04 -0.11,0.05 -0.11,0.05 -0.1,0.05 -0.11,0.06 -0.1,0.05 -0.1,0.06 -0.1,0.06 -0.1,0.06 -0.09,0.07 -0.1,0.06 -0.09,0.07 -0.09,0.07 -0.09,0.07 -0.09,0.07 -0.08,0.07 -0.09,0.08 -0.08,0.08 -0.08,0.07 -0.08,0.08 -0.07,0.08 -0.07,0.09 -0.07,0.08 -0.07,0.09 -0.07,0.08 -0.06,0.09 -0.06,0.09 -0.06,0.09 -0.06,0.09 -0.06,0.09 -0.05,0.1 -0.05,0.09 -0.05,0.1 -0.05,0.1 -0.04,0.1 -0.04,0.1 -0.04,0.1 -0.04,0.11 -0.04,0.1 -0.03,0.11 -0.03,0.11 -0.03,0.11 -0.03,0.11 -0.02,0.11 -0.03,0.11 -0.02,0.12 -0.02,0.11 -0.01,0.12 -0.02,0.12 -0.01,0.12 -0.01,0.12 -0.01,0.12 v 0.13 l -0.01,0.12 v 0.13 h -12.1 v -0.19 l 0.01,-0.2 v -0.2 l 0.01,-0.19 0.02,-0.19 0.01,-0.2 0.02,-0.19 0.03,-0.19 0.02,-0.19 0.03,-0.19 0.03,-0.19 0.04,-0.19 0.04,-0.19 0.04,-0.18 0.04,-0.19 0.05,-0.18 0.05,-0.19 0.05,-0.18 0.06,-0.19 0.06,-0.18 0.06,-0.18 0.06,-0.18 0.07,-0.18 0.07,-0.18 0.08,-0.18 0.08,-0.18 0.08,-0.18 0.08,-0.17 0.09,-0.18 0.09,-0.17 0.09,-0.18 0.09,-0.17 0.1,-0.18 0.11,-0.17 0.1,-0.17 0.11,-0.17 0.11,-0.17 0.11,-0.17 0.12,-0.17 0.12,-0.17 0.12,-0.16 0.13,-0.17 0.12,-0.16 0.14,-0.16 0.13,-0.16 0.13,-0.16 0.14,-0.16 0.14,-0.15 0.14,-0.15 0.15,-0.15 0.15,-0.15 0.15,-0.15 0.15,-0.14 0.16,-0.15 0.15,-0.14 0.16,-0.14 0.17,-0.13 0.16,-0.14 0.17,-0.13 0.17,-0.14 0.17,-0.13 0.18,-0.13 0.18,-0.12 0.18,-0.13 0.18,-0.12 0.19,-0.12 0.18,-0.12 0.19,-0.12 0.2,-0.12 0.19,-0.11 0.2,-0.11 0.2,-0.11 0.21,-0.11 0.2,-0.11 0.21,-0.1 0.21,-0.11 0.21,-0.1 0.22,-0.1 0.22,-0.1 0.22,-0.09 0.22,-0.1 0.22,-0.09 0.23,-0.09 0.23,-0.09 0.22,-0.08 0.23,-0.08 0.23,-0.08 0.24,-0.08 0.23,-0.08 0.24,-0.07 0.23,-0.07 0.24,-0.07 0.24,-0.06 0.24,-0.06 0.24,-0.07 0.24,-0.05 0.25,-0.06 0.24,-0.05 0.25,-0.05 0.25,-0.05 0.25,-0.05 0.25,-0.04 0.25,-0.05 0.26,-0.04 0.25,-0.03 0.26,-0.04 0.26,-0.03 0.26,-0.03 0.26,-0.03 0.26,-0.02 0.26,-0.02 0.27,-0.02 0.26,-0.02 0.27,-0.02 0.27,-0.01 0.27,-0.01 0.27,-0.01 0.28,-0.01 h 0.27 0.28 0.41 z m -1.41,25.64 -1.88,0.3 -1.61,0.49 -1.34,0.68 -1.07,0.89 -0.81,1.08 -0.55,1.27 -0.28,1.48 -0.04,0.71 0.02,0.55 0.08,0.53 0.12,0.5 0.18,0.48 0.22,0.45 0.27,0.43 0.33,0.41 0.37,0.38 0.42,0.34 0.45,0.3 0.49,0.25 0.52,0.21 0.57,0.16 0.6,0.11 0.63,0.07 0.68,0.02 0.66,-0.02 0.65,-0.05 0.64,-0.1 0.62,-0.13 0.61,-0.16 0.6,-0.21 0.59,-0.24 0.57,-0.28 0.54,-0.31 0.52,-0.34 0.47,-0.36 0.44,-0.39 0.4,-0.41 0.36,-0.44 0.33,-0.47 0.29,-0.49 v -7.79 h -4.52 z"
           id="letter-a-stroke"
           inkscape:connector-curvature="0"
           style="stroke:#ffffff;stroke-width:1;fill:#000000;fill-opacity:0" />
        <path
           d="m 308.75,73.5 h 11.6 l -11.47,45 h -10.07 l -8.53,-28.32 -8.52,28.32 h -10.03 l -11.48,-45 h 11.61 l 5.86,28.61 8.24,-28.61 h 8.69 l 8.19,28.66 z"
           id="letter-w-stoke"
           inkscape:connector-curvature="0"
           style="stroke:#ffffff;stroke-width:1;fill:#000000;fill-opacity:0" />
        <path
           d="M 205.05,118.5 V 94.93 h -22.1 v 23.57 h -11.33 v -55 h 11.33 v 22.29 h 22.1 V 63.5 h 11.33 v 55 z"
           id="letter-h-stroke"
           inkscape:connector-curvature="0"
           style="stroke:#ffffff;stroke-width:1;fill:#000000;fill-opacity:0" />
        <path
           d="m 320.35,108.5 h 40 v 10 h -40 z"
           id="letter-prompt-stroke"
           inkscape:connector-curvature="0"
           style="stroke:#ffffff;stroke-width:1;fill:#000000;fill-opacity:0" />
        <path
           id="path4835"
           d="m 18.233359,128.32358 c 0,8.03795 3.703328,17.50702 9.274269,24.70664 4.411959,5.70181 10.3289,10.6064 17.367415,13.86744 17.238616,7.98687 44.568544,8.38266 56.941087,2.79019 15.09785,-6.82432 22.45427,-19.76568 22.04064,-34.95508 -0.44996,-16.52385 -17.80787,-25.08139 -21.50872,-27.7984 C 98.647216,104.21737 79.754575,97.384395 70.130932,94.370991 60.507289,91.350523 52.887054,88.379456 47.277511,85.450732 31.97876,77.440849 24.329384,66.657498 24.329384,53.093625 c 0,-7.050109 2.054404,-13.338043 6.155927,-18.863804 4.101522,-5.532818 9.995184,-9.844747 17.6737,-12.956956 7.678516,-3.105153 16.296813,-4.65773 25.85489,-4.65773 9.623644,0 18.198226,1.686663 25.723754,5.067045 7.525535,3.373325 13.368195,8.136912 17.528005,14.290761 4.16708,6.153848 7.30717,16.142575 7.30717,23.968973"
           style="fill:none;stroke:#000000;stroke-width:33.90589523;stroke-miterlimit:4;stroke-dasharray:none"
           inkscape:connector-curvature="0"
           sodipodi:nodetypes="csssssccsccsccc" />
        <g
           style="stroke-width:35;stroke-miterlimit:4;stroke-dasharray:none"
           id="g4854">
          <path
             d="m 240.95,125.86 c -3.02228,16.13879 -7.86104,27.64481 -14.52476,34.52154 -0.76801,0.80148 -1.56013,1.53801 -2.37638,2.20959 -8.36939,6.91706 -19.39252,10.78059 -33.06489,11.59507 -2.80796,0.16919 -5.63127,0.19185 -8.46992,0.0679 -13.89465,-0.63198 -25.13599,-5.13564 -33.7211,-13.51391 -2.72652,-2.60636 -5.20887,-5.61523 -7.44705,-9.02675 -8.06694,-11.91571 -12.3193,-27.95376 -12.75307,-48.11849 -0.0319,-0.92604 -0.0478,-2.53913 -0.0478,-4.421385 0,-0.95152 0,-7.82117 0,-8.858913 0,-2.50997 0.0335,-4.749498 0.10049,-6.002989 0.43009,-11.666889 2.31992,-22.045675 5.66327,-31.139005 3.57326,-9.960016 8.64761,-17.941996 15.22991,-23.94856 0.91184,-0.850206 1.85349,-1.662675 2.82498,-2.437419 8.38672,-6.751544 18.61133,-10.410147 30.68095,-10.977921 2.81351,-0.125866 5.60916,-0.103187 8.38695,0.06799 13.45811,0.818258 24.30113,4.667898 32.52906,11.546093 0.88954,0.740297 1.74247,1.512276 2.55879,2.31594 8.39637,8.272644 13.28696,20.120097 14.6806,35.54119"
             style="fill:none;stroke:#000000;stroke-width:35;stroke-miterlimit:4;stroke-dasharray:none"
             id="path4852"
             inkscape:connector-curvature="0" />
        </g>
      </g>
    </g>
  </g>
</svg>
