<?xml version="1.0" encoding="UTF-8" standalone="no"?>
<!DOCTYPE svg PUBLIC "-//W3C//DTD SVG 1.1//EN" "http://www.w3.org/Graphics/SVG/1.1/DTD/svg11.dtd">
<svg version="1.1" xmlns="http://www.w3.org/2000/svg" xmlns:xlink="http://www.w3.org/1999/xlink" preserveAspectRatio="xMidYMid meet" viewBox="0 0 400 220" width="400" height="220"><defs><path class="letter-c" d="M262.53 187.85C249.28 199.28 231.81 205 210.14 205C186.43 205 167.78 197.02 154.19 181.06C140.6 165.1 133.81 143.19 133.81 115.33C133.81 114.2 133.81 105.16 133.81 104.03C133.81 86.25 136.94 70.59 143.2 57.04C149.47 43.49 158.42 33.1 170.07 25.86C181.71 18.62 195.23 15 210.64 15C231.98 15 249.17 20.72 262.21 32.15C275.25 43.58 282.78 59.62 284.82 80.28C281.01 80.28 250.52 80.28 246.71 80.28C245.78 68.34 242.46 59.68 236.74 54.31C231.03 48.93 222.33 46.24 210.64 46.24C197.94 46.24 188.44 50.79 182.13 59.9C175.82 69 172.59 83.12 172.42 102.25C172.42 103.65 172.42 114.83 172.42 116.22C172.42 136.21 175.44 150.81 181.5 160.04C187.55 169.27 197.1 173.88 210.14 173.88C221.91 173.88 230.69 171.2 236.49 165.82C242.29 160.44 245.61 152.12 246.46 140.86C249 140.86 261.7 140.86 284.56 140.86C278.71 164.57 271.36 180.23 262.53 187.85Z" id="b2f1WGQ1Mw"></path><path class="letter-s" d="M120.57 137.37C115.49 133.52 106.35 129.45 93.14 125.18C79.93 120.9 69.48 116.69 61.77 112.54C40.77 101.19 30.28 85.91 30.28 66.69C30.28 56.7 33.09 47.79 38.72 39.96C44.35 32.12 52.44 26.01 62.98 21.6C73.52 17.2 85.35 15 98.47 15C111.68 15 123.45 17.39 133.78 22.18C144.11 26.96 152.13 33.71 157.84 42.43C163.56 51.15 166.42 61.06 166.42 72.15C162.61 72.15 132.13 72.15 128.32 72.15C128.32 63.69 125.65 57.1 120.32 52.4C114.98 47.7 107.49 45.35 97.84 45.35C88.53 45.35 81.29 47.32 76.12 51.26C70.96 55.2 68.38 60.38 68.38 66.82C68.38 72.83 71.4 77.87 77.46 81.93C83.51 86 92.42 89.81 104.19 93.36C125.86 99.88 141.65 107.97 151.56 117.62C161.46 127.27 166.42 139.3 166.42 153.69C166.42 169.69 160.36 182.24 148.26 191.35C136.15 200.45 119.85 205 99.36 205C85.14 205 72.18 202.4 60.5 197.19C48.82 191.98 39.91 184.85 33.77 175.79C27.63 166.73 24.56 156.23 24.56 144.29C28.38 144.29 58.96 144.29 62.79 144.29C62.79 164.7 74.98 174.9 99.36 174.9C108.42 174.9 115.49 173.06 120.57 169.38C125.65 165.69 128.19 160.55 128.19 153.94C128.19 146.75 125.65 141.22 120.57 137.37Z" id="lAT7MKfoh"></path><path class="letter-a" d="M265.63 90.51L266.03 90.52L266.44 90.54L266.84 90.57L267.23 90.59L267.62 90.63L268.01 90.67L268.39 90.71L268.77 90.76L269.14 90.82L269.51 90.88L269.88 90.94L270.24 91.02L270.59 91.09L270.94 91.17L271.29 91.26L271.64 91.35L271.97 91.45L272.31 91.55L272.64 91.66L272.97 91.77L273.29 91.89L273.6 92.02L273.92 92.14L274.23 92.28L274.53 92.42L274.83 92.56L275.13 92.71L275.42 92.87L275.7 93.03L275.99 93.19L276.27 93.37L276.54 93.54L276.81 93.72L277.08 93.91L277.34 94.1L277.59 94.3L277.85 94.5L278.09 94.71L278.34 94.92L278.57 95.14L278.8 95.36L279.03 95.59L279.25 95.82L279.46 96.05L279.67 96.29L279.87 96.53L280.06 96.78L280.25 97.03L280.43 97.28L280.6 97.54L280.77 97.81L280.94 98.08L281.09 98.35L281.24 98.62L281.39 98.9L281.53 99.19L281.66 99.48L281.78 99.77L281.9 100.07L282.02 100.37L282.13 100.68L282.23 100.99L282.32 101.31L282.41 101.63L282.5 101.95L282.57 102.28L282.64 102.61L282.71 102.95L282.77 103.29L282.82 103.63L282.86 103.98L282.9 104.33L282.94 104.69L282.97 105.05L282.99 105.42L283 105.79L283.01 106.16L283.02 106.54L283.02 126.19L283.02 126.51L283.02 126.83L283.03 127.14L283.04 127.45L283.05 127.75L283.07 128.05L283.08 128.35L283.1 128.64L283.12 128.93L283.14 129.22L283.17 129.5L283.19 129.78L283.22 130.05L283.25 130.32L283.29 130.59L283.32 130.85L283.36 131.11L283.4 131.36L283.44 131.61L283.49 131.86L283.53 132.1L283.58 132.34L283.63 132.57L283.68 132.8L283.74 133.03L283.8 133.25L283.85 133.47L283.92 133.68L283.98 133.89L284.04 134.1L284.11 134.3L284.18 134.5L284.25 134.7L284.33 134.89L284.4 135.07L284.48 135.26L284.56 135.44L284.64 135.61L284.73 135.78L284.82 135.95L284.82 136.66L272.59 136.66L272.54 136.54L272.49 136.42L272.45 136.3L272.4 136.18L272.36 136.06L272.31 135.95L272.27 135.83L272.23 135.72L272.19 135.6L272.15 135.49L272.11 135.38L272.07 135.27L272.04 135.16L272 135.05L271.96 134.95L271.93 134.84L271.9 134.73L271.86 134.63L271.83 134.53L271.8 134.42L271.77 134.32L271.74 134.22L271.71 134.12L271.69 134.03L271.66 133.93L271.64 133.83L271.61 133.74L271.59 133.64L271.56 133.55L271.54 133.46L271.52 133.37L271.5 133.28L271.48 133.19L271.46 133.1L271.45 133.02L271.43 132.93L271.41 132.85L271.4 132.76L271.39 132.68L271.37 132.6L271.15 132.84L270.93 133.08L270.7 133.31L270.47 133.53L270.23 133.75L269.99 133.96L269.75 134.16L269.51 134.36L269.26 134.56L269.01 134.74L268.75 134.92L268.5 135.1L268.24 135.27L267.97 135.43L267.7 135.59L267.43 135.74L267.16 135.88L266.88 136.02L266.6 136.15L266.31 136.27L266.03 136.39L265.74 136.51L265.44 136.61L265.15 136.72L264.84 136.81L264.54 136.9L264.23 136.98L263.92 137.06L263.61 137.13L263.29 137.19L262.97 137.25L262.65 137.3L262.32 137.35L261.99 137.39L261.66 137.42L261.32 137.45L260.98 137.47L260.64 137.49L260.29 137.5L259.94 137.5L259.61 137.5L259.28 137.49L258.95 137.48L258.63 137.46L258.31 137.44L257.99 137.41L257.68 137.38L257.37 137.35L257.06 137.3L256.75 137.26L256.45 137.21L256.15 137.15L255.85 137.09L255.56 137.03L255.27 136.96L254.98 136.88L254.69 136.8L254.41 136.72L254.13 136.63L253.85 136.54L253.58 136.44L253.3 136.33L253.04 136.23L252.77 136.11L252.51 135.99L252.25 135.87L251.99 135.74L251.73 135.61L251.48 135.47L251.23 135.33L250.99 135.19L250.74 135.03L250.5 134.88L250.27 134.72L250.03 134.55L249.8 134.38L249.57 134.2L249.35 134.02L249.12 133.84L248.9 133.65L248.69 133.45L248.48 133.26L248.27 133.06L248.07 132.86L247.88 132.65L247.69 132.44L247.5 132.24L247.33 132.02L247.15 131.81L246.99 131.59L246.83 131.37L246.67 131.15L246.52 130.93L246.38 130.7L246.24 130.47L246.1 130.24L245.97 130.01L245.85 129.77L245.73 129.53L245.62 129.29L245.51 129.05L245.41 128.8L245.32 128.55L245.23 128.3L245.14 128.04L245.06 127.79L244.99 127.53L244.92 127.27L244.86 127L244.8 126.73L244.75 126.47L244.7 126.19L244.66 125.92L244.62 125.64L244.59 125.36L244.57 125.08L244.55 124.8L244.54 124.51L244.53 124.22L244.53 123.93L244.53 123.57L244.54 123.22L244.56 122.87L244.58 122.52L244.61 122.18L244.65 121.84L244.69 121.51L244.74 121.18L244.8 120.86L244.86 120.53L244.93 120.22L245.01 119.91L245.09 119.6L245.18 119.29L245.28 119L245.38 118.7L245.49 118.41L245.61 118.12L245.73 117.84L245.86 117.56L246 117.29L246.14 117.02L246.29 116.75L246.45 116.49L246.61 116.23L246.78 115.98L246.96 115.73L247.14 115.48L247.33 115.24L247.53 115.01L247.73 114.77L247.94 114.54L248.16 114.32L248.38 114.1L248.61 113.88L248.85 113.67L249.1 113.47L249.35 113.26L249.6 113.06L249.87 112.87L250.14 112.68L250.41 112.49L250.69 112.31L250.98 112.14L251.28 111.97L251.57 111.8L251.88 111.64L252.19 111.48L252.51 111.33L252.83 111.18L253.16 111.04L253.5 110.9L253.84 110.77L254.19 110.64L254.54 110.51L254.9 110.4L255.26 110.28L255.63 110.17L256.01 110.07L256.39 109.97L256.78 109.87L257.18 109.78L257.58 109.7L257.99 109.62L258.4 109.54L258.82 109.47L259.24 109.4L259.67 109.34L260.11 109.28L260.55 109.23L261 109.19L261.45 109.14L261.91 109.1L262.38 109.07L262.85 109.04L263.33 109.02L263.81 109L264.3 108.99L264.8 108.98L265.3 108.97L270.87 108.97L270.87 106.38L270.87 106.22L270.87 106.07L270.86 105.91L270.85 105.76L270.84 105.61L270.83 105.46L270.82 105.31L270.81 105.17L270.79 105.03L270.77 104.88L270.75 104.74L270.72 104.6L270.7 104.47L270.67 104.33L270.64 104.2L270.61 104.06L270.58 103.93L270.54 103.8L270.51 103.68L270.47 103.55L270.43 103.42L270.38 103.3L270.34 103.18L270.29 103.06L270.24 102.94L270.19 102.82L270.13 102.71L270.08 102.59L270.02 102.48L269.96 102.37L269.9 102.26L269.84 102.15L269.77 102.05L269.7 101.94L269.64 101.84L269.56 101.74L269.49 101.64L269.41 101.54L269.34 101.44L269.26 101.35L269.18 101.26L269.09 101.17L269 101.08L268.92 100.99L268.82 100.91L268.73 100.83L268.64 100.75L268.54 100.67L268.44 100.6L268.33 100.52L268.23 100.46L268.12 100.39L268.01 100.32L267.9 100.26L267.79 100.2L267.67 100.14L267.55 100.09L267.43 100.03L267.3 99.98L267.18 99.94L267.05 99.89L266.92 99.85L266.79 99.8L266.65 99.77L266.51 99.73L266.37 99.7L266.23 99.66L266.09 99.63L265.94 99.61L265.79 99.58L265.64 99.56L265.48 99.54L265.33 99.52L265.17 99.51L265.01 99.49L264.85 99.48L264.68 99.47L264.51 99.47L264.34 99.47L264.17 99.46L264.02 99.47L263.87 99.47L263.72 99.47L263.57 99.48L263.42 99.49L263.28 99.5L263.14 99.51L263 99.52L262.86 99.54L262.72 99.56L262.59 99.58L262.45 99.6L262.32 99.62L262.19 99.64L262.06 99.67L261.93 99.7L261.81 99.73L261.68 99.76L261.56 99.8L261.44 99.83L261.32 99.87L261.2 99.91L261.09 99.95L260.97 99.99L260.86 100.04L260.75 100.08L260.64 100.13L260.53 100.18L260.43 100.23L260.32 100.29L260.22 100.34L260.12 100.4L260.02 100.46L259.92 100.52L259.83 100.59L259.73 100.65L259.64 100.72L259.55 100.79L259.46 100.86L259.37 100.93L259.29 101L259.2 101.08L259.12 101.16L259.04 101.23L258.97 101.31L258.89 101.39L258.82 101.48L258.75 101.56L258.68 101.65L258.61 101.73L258.55 101.82L258.49 101.91L258.43 102L258.37 102.09L258.31 102.18L258.26 102.28L258.21 102.37L258.16 102.47L258.11 102.57L258.07 102.67L258.03 102.77L257.99 102.87L257.95 102.98L257.91 103.08L257.88 103.19L257.85 103.3L257.82 103.41L257.79 103.52L257.77 103.63L257.74 103.74L257.72 103.86L257.7 103.97L257.69 104.09L257.67 104.21L257.66 104.33L257.65 104.45L257.64 104.57L257.64 104.7L257.64 104.82L257.64 104.95L245.53 104.95L245.53 104.76L245.54 104.56L245.54 104.36L245.56 104.17L245.57 103.98L245.59 103.78L245.61 103.59L245.63 103.4L245.65 103.21L245.68 103.02L245.71 102.83L245.75 102.64L245.79 102.45L245.83 102.27L245.87 102.08L245.92 101.9L245.97 101.71L246.02 101.53L246.08 101.34L246.14 101.16L246.2 100.98L246.27 100.8L246.33 100.62L246.41 100.44L246.48 100.26L246.56 100.08L246.64 99.9L246.72 99.73L246.81 99.55L246.9 99.38L246.99 99.2L247.09 99.03L247.18 98.85L247.29 98.68L247.39 98.51L247.5 98.34L247.61 98.17L247.72 98L247.84 97.83L247.96 97.66L248.08 97.5L248.21 97.33L248.34 97.17L248.47 97.01L248.6 96.85L248.73 96.69L248.87 96.53L249.01 96.38L249.16 96.23L249.3 96.08L249.45 95.93L249.6 95.78L249.75 95.64L249.91 95.49L250.06 95.35L250.23 95.21L250.39 95.08L250.55 94.94L250.72 94.81L250.89 94.67L251.07 94.54L251.24 94.41L251.42 94.29L251.6 94.16L251.78 94.04L251.97 93.92L252.16 93.8L252.35 93.68L252.54 93.56L252.73 93.45L252.93 93.34L253.13 93.23L253.34 93.12L253.54 93.01L253.75 92.91L253.96 92.8L254.17 92.7L254.39 92.6L254.61 92.5L254.83 92.41L255.05 92.31L255.28 92.22L255.5 92.13L255.73 92.04L255.96 91.96L256.19 91.88L256.42 91.8L256.65 91.72L256.88 91.64L257.12 91.57L257.35 91.5L257.59 91.43L257.83 91.37L258.07 91.31L258.31 91.24L258.55 91.19L258.8 91.13L259.04 91.08L259.29 91.03L259.54 90.98L259.79 90.93L260.04 90.89L260.29 90.84L260.55 90.8L260.8 90.77L261.06 90.73L261.32 90.7L261.58 90.67L261.84 90.64L262.1 90.62L262.36 90.6L262.63 90.58L262.9 90.56L263.16 90.54L263.43 90.53L263.7 90.52L263.97 90.51L264.25 90.5L264.52 90.5L264.8 90.5L265.21 90.5L265.63 90.51ZM264.21 116.15L262.33 116.45L260.73 116.94L259.38 117.62L258.31 118.51L257.5 119.59L256.95 120.86L256.67 122.34L256.63 123.05L256.65 123.6L256.73 124.13L256.85 124.63L257.03 125.11L257.25 125.56L257.53 125.99L257.85 126.4L258.22 126.78L258.64 127.12L259.09 127.42L259.58 127.67L260.11 127.88L260.67 128.04L261.27 128.15L261.9 128.22L262.58 128.24L263.24 128.22L263.89 128.17L264.53 128.07L265.15 127.94L265.76 127.78L266.36 127.57L266.95 127.33L267.52 127.05L268.07 126.74L268.58 126.4L269.05 126.04L269.49 125.65L269.89 125.24L270.25 124.8L270.58 124.33L270.87 123.84L270.87 116.05L266.35 116.05L264.21 116.15Z" id="eK7f8mrZI"></path><path class="letter-w" d="M333.31 92.5L344.92 92.5L333.44 137.5L323.37 137.5L314.85 109.18L306.32 137.5L296.3 137.5L284.82 92.5L296.42 92.5L302.28 121.11L310.52 92.5L319.21 92.5L327.41 121.16L333.31 92.5Z" id="crSoh2wL8"></path><path class="letter-h" d="M229.61 137.5L229.61 113.93L207.51 113.93L207.51 137.5L196.18 137.5L196.18 82.5L207.51 82.5L207.51 104.79L229.61 104.79L229.61 82.5L240.94 82.5L240.94 137.5L229.61 137.5Z" id="d20WUVdPee"></path><path class="letter-prompt" d="M344.92 127.5L384.92 127.5L384.92 137.5L344.92 137.5L344.92 127.5Z" id="aMvrRxN4t"></path></defs><g><g><g><use xlink:href="#b2f1WGQ1Mw" opacity="1" fill="#ff0000" fill-opacity="1"></use><g><use xlink:href="#b2f1WGQ1Mw" opacity="1" fill-opacity="0" stroke="#ff6900" stroke-width="1" stroke-opacity="1"></use></g></g><g><use xlink:href="#lAT7MKfoh" opacity="1" fill="#00b660" fill-opacity="1"></use><g><use xlink:href="#lAT7MKfoh" opacity="1" fill-opacity="0" stroke="#0051b6" stroke-width="0" stroke-opacity="1"></use></g></g><g><use xlink:href="#eK7f8mrZI" opacity="1" fill="#000000" fill-opacity="1"></use><g><use xlink:href="#eK7f8mrZI" opacity="1" fill-opacity="0" stroke="#007d09" stroke-width="0" stroke-opacity="1"></use></g></g><g><use xlink:href="#crSoh2wL8" opacity="1" fill="#000000" fill-opacity="1"></use><g><use xlink:href="#crSoh2wL8" opacity="1" fill-opacity="0" stroke="#007d09" stroke-width="0" stroke-opacity="1"></use></g></g><g><use xlink:href="#d20WUVdPee" opacity="1" fill="#000000" fill-opacity="1"></use><g><use xlink:href="#d20WUVdPee" opacity="1" fill-opacity="0" stroke="#007d09" stroke-width="0" stroke-opacity="1"></use></g></g><g><use xlink:href="#aMvrRxN4t" opacity="1" fill="#000000" fill-opacity="1"></use><g><use xlink:href="#aMvrRxN4t" opacity="1" fill-opacity="0" stroke="#007d09" stroke-width="0" stroke-opacity="1"></use></g></g></g></g></svg>