<?xml version="1.0" encoding="UTF-8" standalone="no"?>
<!DOCTYPE svg PUBLIC "-//W3C//DTD SVG 1.1//EN" "http://www.w3.org/Graphics/SVG/1.1/DTD/svg11.dtd">
<svg version="1.1" xmlns="http://www.w3.org/2000/svg" xmlns:xlink="http://www.w3.org/1999/xlink" preserveAspectRatio="xMidYMid meet" viewBox="0 0 360 190" width="360" height="190">
        <g id="lines">
            <path 
                id="letter-c-stroke" 
                d="M237.97 172.85C224.71 184.28 207.25 190 185.58 190C161.87 190 143.22 182.02 129.63 166.06C116.04 150.1 109.24 128.19 109.24 100.33C109.24 99.2 109.24 90.16 109.24 89.03C109.24 71.25 112.38 55.59 118.64 42.04C124.91 28.49 133.86 18.1 145.51 10.86C157.15 3.62 170.67 0 186.08 0C207.42 0 224.61 5.72 237.65 17.15C250.69 28.58 258.22 44.62 260.25 65.28C256.44 65.28 225.96 65.28 222.15 65.28C221.22 53.34 217.9 44.68 212.18 39.31C206.47 33.93 197.77 31.24 186.08 31.24C173.38 31.24 163.88 35.79 157.57 44.9C151.26 54 148.02 68.12 147.85 87.25C147.85 88.65 147.85 99.83 147.85 101.22C147.85 121.21 150.88 135.81 156.94 145.04C162.99 154.27 172.54 158.88 185.58 158.88C197.34 158.88 206.13 156.2 211.93 150.82C217.73 145.44 221.05 137.12 221.9 125.86C224.44 125.86 237.14 125.86 260 125.86C254.14 149.57 246.8 165.23 237.97 172.85Z" 
                stroke="#ffffff" 
                stroke-width="1" 
            />
            <path 
                id="letter-s-stroke" 
                d="M96.01 122.37C90.93 118.52 81.79 114.45 68.58 110.18C55.37 105.9 44.91 101.69 37.21 97.54C16.21 86.19 5.71 70.91 5.71 51.69C5.71 41.7 8.53 32.79 14.16 24.96C19.79 17.12 27.88 11.01 38.42 6.6C48.96 2.2 60.79 0 73.91 0C87.12 0 98.89 2.39 109.22 7.18C119.55 11.96 127.57 18.71 133.28 27.43C139 36.15 141.85 46.06 141.85 57.15C138.05 57.15 107.57 57.15 103.76 57.15C103.76 48.69 101.09 42.1 95.76 37.4C90.42 32.7 82.93 30.35 73.28 30.35C63.96 30.35 56.73 32.32 51.56 36.26C46.4 40.2 43.81 45.38 43.81 51.82C43.81 57.83 46.84 62.87 52.89 66.93C58.95 71 67.86 74.81 79.63 78.36C101.3 84.88 117.09 92.97 127 102.62C136.9 112.27 141.85 124.3 141.85 138.69C141.85 154.69 135.8 167.24 123.69 176.35C111.59 185.45 95.29 190 74.8 190C60.58 190 47.62 187.4 35.94 182.19C24.26 176.98 15.35 169.85 9.21 160.79C3.07 151.73 0 141.23 0 129.29C3.82 129.29 34.4 129.29 38.23 129.29C38.23 149.7 50.42 159.9 74.8 159.9C83.86 159.9 90.93 158.06 96.01 154.38C101.09 150.69 103.63 145.55 103.63 138.94C103.63 131.75 101.09 126.22 96.01 122.37Z"
                stroke="#ffffff" 
                stroke-width="1" 
            />
            <path 
                id="letter-a-stroke" 
                d="M241.06 75.51L241.47 75.52L241.88 75.54L242.28 75.57L242.67 75.59L243.06 75.63L243.45 75.67L243.83 75.71L244.21 75.76L244.58 75.82L244.95 75.88L245.32 75.94L245.68 76.02L246.03 76.09L246.38 76.17L246.73 76.26L247.07 76.35L247.41 76.45L247.75 76.55L248.08 76.66L248.4 76.77L248.73 76.89L249.04 77.02L249.36 77.14L249.66 77.28L249.97 77.42L250.27 77.56L250.56 77.71L250.86 77.87L251.14 78.03L251.43 78.19L251.7 78.37L251.98 78.54L252.25 78.72L252.51 78.91L252.78 79.1L253.03 79.3L253.28 79.5L253.53 79.71L253.78 79.92L254.01 80.14L254.24 80.36L254.47 80.59L254.69 80.82L254.9 81.05L255.1 81.29L255.3 81.53L255.5 81.78L255.69 82.03L255.87 82.28L256.04 82.54L256.21 82.81L256.37 83.08L256.53 83.35L256.68 83.62L256.83 83.9L256.97 84.19L257.1 84.48L257.22 84.77L257.34 85.07L257.46 85.37L257.57 85.68L257.67 85.99L257.76 86.31L257.85 86.63L257.93 86.95L258.01 87.28L258.08 87.61L258.15 87.95L258.2 88.29L258.26 88.63L258.3 88.98L258.34 89.33L258.38 89.69L258.4 90.05L258.43 90.42L258.44 90.79L258.45 91.16L258.45 91.54L258.45 111.19L258.46 111.51L258.46 111.83L258.47 112.14L258.48 112.45L258.49 112.75L258.51 113.05L258.52 113.35L258.54 113.64L258.56 113.93L258.58 114.22L258.61 114.5L258.63 114.78L258.66 115.05L258.69 115.32L258.73 115.59L258.76 115.85L258.8 116.11L258.84 116.36L258.88 116.61L258.93 116.86L258.97 117.1L259.02 117.34L259.07 117.57L259.12 117.8L259.18 118.03L259.23 118.25L259.29 118.47L259.35 118.68L259.42 118.89L259.48 119.1L259.55 119.3L259.62 119.5L259.69 119.7L259.77 119.89L259.84 120.07L259.92 120.26L260 120.44L260.08 120.61L260.17 120.78L260.25 120.95L260.25 121.66L248.03 121.66L247.98 121.54L247.93 121.42L247.88 121.3L247.84 121.18L247.8 121.06L247.75 120.95L247.71 120.83L247.67 120.72L247.63 120.6L247.59 120.49L247.55 120.38L247.51 120.27L247.47 120.16L247.44 120.05L247.4 119.95L247.37 119.84L247.34 119.73L247.3 119.63L247.27 119.53L247.24 119.42L247.21 119.32L247.18 119.22L247.15 119.12L247.13 119.03L247.1 118.93L247.07 118.83L247.05 118.74L247.03 118.64L247 118.55L246.98 118.46L246.96 118.37L246.94 118.28L246.92 118.19L246.9 118.1L246.88 118.02L246.87 117.93L246.85 117.85L246.84 117.76L246.82 117.68L246.81 117.6L246.59 117.84L246.36 118.08L246.14 118.31L245.9 118.53L245.67 118.75L245.43 118.96L245.19 119.16L244.95 119.36L244.7 119.56L244.45 119.74L244.19 119.92L243.93 120.1L243.67 120.27L243.41 120.43L243.14 120.59L242.87 120.74L242.6 120.88L242.32 121.02L242.04 121.15L241.75 121.27L241.47 121.39L241.18 121.51L240.88 121.61L240.58 121.72L240.28 121.81L239.98 121.9L239.67 121.98L239.36 122.06L239.05 122.13L238.73 122.19L238.41 122.25L238.09 122.3L237.76 122.35L237.43 122.39L237.1 122.42L236.76 122.45L236.42 122.47L236.07 122.49L235.73 122.5L235.38 122.5L235.05 122.5L234.72 122.49L234.39 122.48L234.07 122.46L233.75 122.44L233.43 122.41L233.12 122.38L232.8 122.35L232.5 122.3L232.19 122.26L231.89 122.21L231.59 122.15L231.29 122.09L231 122.03L230.7 121.96L230.42 121.88L230.13 121.8L229.85 121.72L229.57 121.63L229.29 121.54L229.01 121.44L228.74 121.33L228.47 121.23L228.21 121.11L227.94 120.99L227.68 120.87L227.43 120.74L227.17 120.61L226.92 120.47L226.67 120.33L226.43 120.19L226.18 120.03L225.94 119.88L225.71 119.72L225.47 119.55L225.24 119.38L225.01 119.2L224.78 119.02L224.56 118.84L224.34 118.65L224.13 118.45L223.91 118.26L223.71 118.06L223.51 117.86L223.32 117.65L223.13 117.44L222.94 117.24L222.77 117.02L222.59 116.81L222.43 116.59L222.27 116.37L222.11 116.15L221.96 115.93L221.81 115.7L221.67 115.47L221.54 115.24L221.41 115.01L221.29 114.77L221.17 114.53L221.06 114.29L220.95 114.05L220.85 113.8L220.76 113.55L220.67 113.3L220.58 113.04L220.5 112.79L220.43 112.53L220.36 112.27L220.3 112L220.24 111.73L220.19 111.47L220.14 111.19L220.1 110.92L220.06 110.64L220.03 110.36L220.01 110.08L219.99 109.8L219.98 109.51L219.97 109.22L219.96 108.93L219.97 108.57L219.98 108.22L219.99 107.87L220.02 107.52L220.05 107.18L220.08 106.84L220.13 106.51L220.18 106.18L220.24 105.86L220.3 105.53L220.37 105.22L220.45 104.91L220.53 104.6L220.62 104.29L220.72 104L220.82 103.7L220.93 103.41L221.05 103.12L221.17 102.84L221.3 102.56L221.44 102.29L221.58 102.02L221.73 101.75L221.89 101.49L222.05 101.23L222.22 100.98L222.4 100.73L222.58 100.48L222.77 100.24L222.97 100.01L223.17 99.77L223.38 99.54L223.6 99.32L223.82 99.1L224.05 98.88L224.29 98.67L224.53 98.47L224.78 98.26L225.04 98.06L225.3 97.87L225.57 97.68L225.85 97.49L226.13 97.31L226.42 97.14L226.71 96.97L227.01 96.8L227.32 96.64L227.63 96.48L227.95 96.33L228.27 96.18L228.6 96.04L228.94 95.9L229.28 95.77L229.62 95.64L229.98 95.51L230.34 95.4L230.7 95.28L231.07 95.17L231.45 95.07L231.83 94.97L232.22 94.87L232.62 94.78L233.02 94.7L233.42 94.62L233.84 94.54L234.25 94.47L234.68 94.4L235.11 94.34L235.55 94.28L235.99 94.23L236.44 94.19L236.89 94.14L237.35 94.1L237.82 94.07L238.29 94.04L238.77 94.02L239.25 94L239.74 93.99L240.24 93.98L240.74 93.97L246.31 93.97L246.31 91.38L246.31 91.22L246.3 91.07L246.3 90.91L246.29 90.76L246.28 90.61L246.27 90.46L246.26 90.31L246.24 90.17L246.23 90.03L246.21 89.88L246.19 89.74L246.16 89.6L246.14 89.47L246.11 89.33L246.08 89.2L246.05 89.06L246.02 88.93L245.98 88.8L245.94 88.68L245.91 88.55L245.86 88.42L245.82 88.3L245.78 88.18L245.73 88.06L245.68 87.94L245.63 87.82L245.57 87.71L245.52 87.59L245.46 87.48L245.4 87.37L245.34 87.26L245.28 87.15L245.21 87.05L245.14 86.94L245.07 86.84L245 86.74L244.93 86.64L244.85 86.54L244.78 86.44L244.7 86.35L244.61 86.26L244.53 86.17L244.44 86.08L244.35 85.99L244.26 85.91L244.17 85.83L244.07 85.75L243.98 85.67L243.88 85.6L243.77 85.52L243.67 85.46L243.56 85.39L243.45 85.32L243.34 85.26L243.22 85.2L243.11 85.14L242.99 85.09L242.87 85.03L242.74 84.98L242.62 84.94L242.49 84.89L242.36 84.85L242.23 84.8L242.09 84.77L241.95 84.73L241.81 84.7L241.67 84.66L241.53 84.63L241.38 84.61L241.23 84.58L241.08 84.56L240.92 84.54L240.77 84.52L240.61 84.51L240.45 84.49L240.28 84.48L240.12 84.47L239.95 84.47L239.78 84.47L239.61 84.46L239.46 84.47L239.3 84.47L239.16 84.47L239.01 84.48L238.86 84.49L238.72 84.5L238.58 84.51L238.44 84.52L238.3 84.54L238.16 84.56L238.03 84.58L237.89 84.6L237.76 84.62L237.63 84.64L237.5 84.67L237.37 84.7L237.25 84.73L237.12 84.76L237 84.8L236.88 84.83L236.76 84.87L236.64 84.91L236.53 84.95L236.41 84.99L236.3 85.04L236.19 85.08L236.08 85.13L235.97 85.18L235.87 85.23L235.76 85.29L235.66 85.34L235.56 85.4L235.46 85.46L235.36 85.52L235.27 85.59L235.17 85.65L235.08 85.72L234.99 85.79L234.9 85.86L234.81 85.93L234.73 86L234.64 86.08L234.56 86.16L234.48 86.23L234.4 86.31L234.33 86.39L234.26 86.48L234.19 86.56L234.12 86.65L234.05 86.73L233.99 86.82L233.93 86.91L233.87 87L233.81 87.09L233.75 87.18L233.7 87.28L233.65 87.37L233.6 87.47L233.55 87.57L233.51 87.67L233.47 87.77L233.43 87.87L233.39 87.98L233.35 88.08L233.32 88.19L233.29 88.3L233.26 88.41L233.23 88.52L233.21 88.63L233.18 88.74L233.16 88.86L233.14 88.97L233.13 89.09L233.11 89.21L233.1 89.33L233.09 89.45L233.08 89.57L233.08 89.7L233.07 89.82L233.07 89.95L220.97 89.95L220.97 89.76L220.98 89.56L220.98 89.36L220.99 89.17L221.01 88.98L221.02 88.78L221.04 88.59L221.07 88.4L221.09 88.21L221.12 88.02L221.15 87.83L221.19 87.64L221.23 87.45L221.27 87.27L221.31 87.08L221.36 86.9L221.41 86.71L221.46 86.53L221.52 86.34L221.58 86.16L221.64 85.98L221.7 85.8L221.77 85.62L221.84 85.44L221.92 85.26L222 85.08L222.08 84.9L222.16 84.73L222.25 84.55L222.34 84.38L222.43 84.2L222.52 84.03L222.62 83.85L222.73 83.68L222.83 83.51L222.94 83.34L223.05 83.17L223.16 83L223.28 82.83L223.4 82.66L223.52 82.5L223.65 82.33L223.77 82.17L223.91 82.01L224.04 81.85L224.17 81.69L224.31 81.53L224.45 81.38L224.59 81.23L224.74 81.08L224.89 80.93L225.04 80.78L225.19 80.64L225.35 80.49L225.5 80.35L225.66 80.21L225.83 80.08L225.99 79.94L226.16 79.81L226.33 79.67L226.5 79.54L226.68 79.41L226.86 79.29L227.04 79.16L227.22 79.04L227.41 78.92L227.59 78.8L227.78 78.68L227.98 78.56L228.17 78.45L228.37 78.34L228.57 78.23L228.78 78.12L228.98 78.01L229.19 77.91L229.4 77.8L229.61 77.7L229.83 77.6L230.05 77.5L230.27 77.41L230.49 77.31L230.71 77.22L230.94 77.13L231.17 77.04L231.39 76.96L231.62 76.88L231.85 76.8L232.09 76.72L232.32 76.64L232.56 76.57L232.79 76.5L233.03 76.43L233.27 76.37L233.51 76.31L233.75 76.24L233.99 76.19L234.24 76.13L234.48 76.08L234.73 76.03L234.98 75.98L235.23 75.93L235.48 75.89L235.73 75.84L235.99 75.8L236.24 75.77L236.5 75.73L236.76 75.7L237.02 75.67L237.28 75.64L237.54 75.62L237.8 75.6L238.07 75.58L238.33 75.56L238.6 75.54L238.87 75.53L239.14 75.52L239.41 75.51L239.69 75.5L239.96 75.5L240.24 75.5L240.65 75.5L241.06 75.51ZM239.65 101.15L237.77 101.45L236.16 101.94L234.82 102.62L233.75 103.51L232.94 104.59L232.39 105.86L232.11 107.34L232.07 108.05L232.09 108.6L232.17 109.13L232.29 109.63L232.47 110.11L232.69 110.56L232.96 110.99L233.29 111.4L233.66 111.78L234.08 112.12L234.53 112.42L235.02 112.67L235.54 112.88L236.11 113.04L236.71 113.15L237.34 113.22L238.02 113.24L238.68 113.22L239.33 113.17L239.97 113.07L240.59 112.94L241.2 112.78L241.8 112.57L242.39 112.33L242.96 112.05L243.5 111.74L244.02 111.4L244.49 111.04L244.93 110.65L245.33 110.24L245.69 109.8L246.02 109.33L246.31 108.84L246.31 101.05L241.79 101.05L239.65 101.15Z" 
                stroke="#ffffff" 
                stroke-width="1" 
            />
            <path 
                id="letter-w-stoke" 
                d="M308.75 77.5L320.35 77.5L308.88 122.5L298.81 122.5L290.28 94.18L281.76 122.5L271.73 122.5L260.25 77.5L271.86 77.5L277.72 106.11L285.96 77.5L294.65 77.5L302.84 106.16L308.75 77.5Z" 
                stroke="#ffffff" 
                stroke-width="1" 
            />
            <path 
                id="letter-h-stroke" 
                d="M205.05 122.5L205.05 98.93L182.95 98.93L182.95 122.5L171.62 122.5L171.62 67.5L182.95 67.5L182.95 89.79L205.05 89.79L205.05 67.5L216.38 67.5L216.38 122.5L205.05 122.5Z" 
                stroke="#ffffff" 
                stroke-width="1" 
            />
            <path 
                id="letter-prompt-stroke" 
                d="M320.35 112.5L360.35 112.5L360.35 122.5L320.35 122.5L320.35 112.5Z" 
                stroke="#ffffff" 
                stroke-width="1" 
            />
        </g>
    </svg>